<svg width="314" height="65" viewBox="0 0 314 65" fill="none" xmlns="http://www.w3.org/2000/svg">
<path d="M103.12 19.1784V51.4093H95.4617V19.1784H82.7139V13.2607H115.868V19.1784H103.12Z" fill="#6A61C9"/>
<path d="M132.83 51.4093V35.2702L119.117 13.2607H127.408L136.664 28.0286L145.92 13.2607H154.212L140.498 35.2702V51.4093H132.83Z" fill="#6A61C9"/>
<path d="M159.253 13.2608H179.707C181.268 13.2473 182.821 13.4769 184.311 13.9412C185.684 14.3656 186.955 15.0675 188.046 16.0034C189.135 16.9652 189.986 18.1679 190.53 19.5161C191.159 21.0952 191.464 22.7849 191.426 24.4844C191.477 26.1061 191.197 27.7211 190.604 29.2312C190.09 30.4554 189.293 31.54 188.278 32.3958C187.195 33.2827 185.965 33.9719 184.644 34.4316C183.096 34.9841 181.509 35.4213 179.897 35.7396L166.901 38.804V51.4094H159.253V13.2608ZM183.826 24.458C183.826 22.7492 183.299 21.4359 182.302 20.534C181.203 19.6002 179.792 19.116 178.351 19.1785H166.901V32.4063L177.518 30.2281C179.554 29.8764 181.112 29.2224 182.191 28.266C182.728 27.7921 183.152 27.2043 183.433 26.5455C183.714 25.8868 183.845 25.1736 183.816 24.458H183.826Z" fill="#6A61C9"/>
<path d="M197.756 13.2607H205.414V45.4969H225.815V51.4094H197.756V13.2607Z" fill="#6A61C9"/>
<path d="M238.051 13.2607V51.4093H230.393V13.2607H238.051Z" fill="#6A61C9"/>
<path d="M246.874 41.2775C247.765 42.0304 248.73 42.6913 249.754 43.2501C250.821 43.8378 251.932 44.3404 253.077 44.7532C254.251 45.1739 255.46 45.4899 256.69 45.6973C257.93 45.9091 259.188 45.9974 260.445 45.961C262.104 45.9976 263.746 45.6148 265.218 44.8482C265.819 44.5178 266.313 44.0236 266.644 43.4232C266.974 42.8228 267.127 42.1409 267.085 41.4568C267.132 40.6966 266.987 39.9368 266.665 39.2468C266.342 38.5568 265.852 37.9585 265.239 37.5064C264.016 36.6168 262.207 35.8978 259.812 35.3493C257.628 34.902 255.482 34.2866 253.393 33.5086C251.72 32.899 250.144 32.0498 248.715 30.9875C247.515 30.0909 246.537 28.9306 245.857 27.5961C245.183 26.19 244.851 24.6452 244.886 23.0866C244.846 21.4296 245.247 19.7917 246.046 18.3398C246.832 16.9907 247.914 15.8381 249.211 14.9696C250.6 14.0363 252.142 13.356 253.768 12.9601C258 11.9219 262.442 12.1233 266.563 13.5403C269.007 14.4207 271.347 15.5668 273.541 16.958L270.682 22.7227C269.059 21.5531 267.284 20.6075 265.408 19.9116C263.508 19.1804 261.499 18.7687 259.464 18.6932C258.646 18.6622 257.826 18.7099 257.017 18.8356C256.248 18.9531 255.499 19.1823 254.796 19.516C254.16 19.8192 253.604 20.2672 253.172 20.824C252.742 21.4137 252.521 22.1303 252.544 22.8599C252.53 23.4986 252.645 24.1336 252.882 24.7269C253.15 25.3098 253.569 25.8105 254.095 26.1774C254.813 26.6928 255.595 27.1129 256.421 27.4274C257.64 27.8923 258.887 28.2798 260.155 28.5877C262.475 29.1805 264.75 29.9348 266.964 30.8451C268.591 31.4901 270.11 32.3793 271.468 33.4822C272.56 34.3891 273.417 35.5449 273.968 36.8524C274.519 38.2616 274.787 39.765 274.759 41.2775C274.79 42.9342 274.388 44.5702 273.594 46.0243C272.813 47.4024 271.731 48.5867 270.429 49.4895C268.988 50.4798 267.38 51.2033 265.682 51.6256C263.774 52.1194 261.81 52.3623 259.839 52.3482C256.938 52.3542 254.06 51.8471 251.336 50.8503C248.702 49.8979 246.201 48.611 243.895 47.0212L246.874 41.2775Z" fill="#6A61C9"/>
<path d="M306.342 51.4093V31.8946L288.473 36.768V51.4093H280.799V13.2607H288.473V30.9558L306.358 26.0613V13.2607H314V51.4093H306.342Z" fill="#6A61C9"/>
<path d="M5.83662 18.8884C5.83662 18.9464 5.83662 18.9992 5.83662 19.0572C5.83376 19.0221 5.83376 18.9868 5.83662 18.9517V18.8884Z" fill="white"/>
<path d="M68.6841 19.1521C68.6782 19.0915 68.6677 19.0316 68.6524 18.9727V18.9094C68.3402 18.1078 67.7323 17.4566 66.9541 17.0898L42.3551 2.88628C40.8832 2.11291 39.2389 1.72634 37.5766 1.76287C35.9254 1.72985 34.2926 2.11446 32.8298 2.88101L8.36784 17.0898C7.9755 17.2755 7.62555 17.5398 7.33974 17.8665C7.05393 18.1931 6.83836 18.575 6.70645 18.9885C6.69081 19.0491 6.68022 19.1108 6.6748 19.1731C6.6748 19.2312 6.6748 19.2945 6.6748 19.3525C6.69202 19.8563 6.89272 20.3365 7.23915 20.7027C7.28033 20.7526 7.32436 20.8002 7.371 20.8451C7.56721 21.0421 7.78279 21.2188 8.01446 21.3725C8.13577 21.4622 8.2729 21.5413 8.41003 21.6257L33.0091 35.8187C35.5988 37.3166 39.95 37.3218 42.5027 35.8187L66.9963 21.6257C68.0934 20.9875 68.6999 20.1858 68.6999 19.3736C68.7004 19.2994 68.6951 19.2254 68.6841 19.1521ZM29.623 17.5276L22.7929 21.4727C22.6602 21.5506 22.509 21.5917 22.3551 21.5917C22.2012 21.5917 22.0501 21.5506 21.9174 21.4727L18.5735 19.516C18.4409 19.4397 18.3308 19.3298 18.2543 19.1974C18.1777 19.065 18.1374 18.9147 18.1374 18.7618C18.1374 18.6088 18.1777 18.4586 18.2543 18.3261C18.3308 18.1937 18.4409 18.0838 18.5735 18.0075L37.4711 7.10568C37.6044 7.02934 37.7553 6.98919 37.9089 6.98919C38.0625 6.98919 38.2134 7.02934 38.3466 7.10568L41.6958 9.05187C41.827 9.12924 41.9358 9.2395 42.0114 9.37178C42.0869 9.50405 42.1267 9.65375 42.1267 9.80609C42.1267 9.95843 42.0869 10.1081 42.0114 10.2404C41.9358 10.3727 41.827 10.4829 41.6958 10.5603L35.7306 14.0044L52.682 23.8567C52.8133 23.934 52.922 24.0443 52.9976 24.1766C53.0732 24.3089 53.1129 24.4586 53.1129 24.6109C53.1129 24.7632 53.0732 24.9129 52.9976 25.0452C52.922 25.1775 52.8133 25.2877 52.682 25.3651L48.315 27.8862C48.1825 27.9621 48.0325 28.002 47.8798 28.002C47.7272 28.002 47.5772 27.9621 47.4447 27.8862L29.623 17.5276Z" fill="#F7F7FB"/>
<path d="M69.5337 19.7271C69.5337 19.6163 69.5337 19.5055 69.5601 19.3948C69.5591 19.506 69.5503 19.6171 69.5337 19.7271V19.7271Z" fill="white"/>
<path d="M69.5336 19.7271C69.5336 19.7271 69.5336 19.7534 69.5336 19.764C69.5336 19.7745 69.5283 19.7376 69.5336 19.7271Z" fill="white"/>
<path d="M69.3171 21.958C68.8832 22.4195 68.3817 22.8126 67.8298 23.1236L43.4892 37.2902L67.872 23.1236C68.4091 22.8197 68.8979 22.4376 69.3224 21.9896L69.3171 21.958ZM5.82051 18.9359C5.81764 18.971 5.81764 19.0062 5.82051 19.0413C5.82051 18.9833 5.82051 18.9306 5.82051 18.8726V18.9359Z" fill="black"/>
<path d="M5.83662 18.8884C5.83662 18.9464 5.83662 18.9992 5.83662 19.0572C5.83376 19.0221 5.83376 18.9868 5.83662 18.9517V18.8884Z" fill="white"/>
<path d="M69.5337 19.7271C69.5337 19.6163 69.5337 19.5055 69.5601 19.3948C69.5591 19.506 69.5503 19.6171 69.5337 19.7271V19.7271Z" fill="white"/>
<path d="M69.5336 19.7271C69.5336 19.7271 69.5336 19.7534 69.5336 19.764C69.5336 19.7745 69.5283 19.7376 69.5336 19.7271Z" fill="white"/>
<path d="M71.7644 45.1804L43.3679 61.5728L43.2465 61.6624C40.1717 63.3713 35.2613 63.3502 32.2128 61.5886L3.78992 45.1804C2.26566 44.3049 1.55364 43.1498 1.75934 42.0211C1.75934 42.0211 1.75934 41.9895 1.75934 41.9737L6.0473 21.9843C6.14751 22.0898 6.25299 22.19 6.36375 22.2902C6.47451 22.3904 6.55363 22.459 6.65384 22.5381L6.76987 22.6277C6.87535 22.7069 6.98084 22.786 7.09687 22.8598C7.21291 22.9336 7.37113 23.0391 7.51881 23.1235L32.1443 37.3323C33.1939 37.9175 34.3383 38.3139 35.5251 38.5032C35.7677 38.5454 36.0156 38.5823 36.2687 38.614C36.773 38.6713 37.2802 38.6995 37.7877 38.6984C38.0356 38.6984 38.2835 38.6984 38.5314 38.6984C38.774 38.6984 39.0166 38.6773 39.2592 38.6351L39.6601 38.5823C39.6933 38.5874 39.7271 38.5874 39.7603 38.5823L40.0556 38.5032L40.2033 38.4768C40.3826 38.4452 40.5567 38.4083 40.7307 38.3661H40.7835L41.3109 38.2184L41.4638 38.1709H41.506C41.7012 38.1129 41.8911 38.0496 42.0757 37.9758C42.2603 37.9019 42.5082 37.8017 42.7191 37.7068C42.9301 37.6119 43.1305 37.5064 43.3257 37.3956C43.3777 37.3727 43.4272 37.3444 43.4733 37.3112L67.814 23.1446C68.3659 22.8336 68.8674 22.4406 69.3013 21.979V22.0107L73.7739 42.0528C74.027 43.1551 73.2834 44.3049 71.7644 45.1804Z" fill="white"/>
<path d="M68.6842 19.1521C68.7844 20.0276 68.1568 20.9137 66.9543 21.6152L42.5451 35.824L66.9965 21.6257C68.0935 20.9875 68.7 20.1858 68.7 19.3736C68.7006 19.2995 68.6953 19.2254 68.6842 19.1521V19.1521ZM5.82051 18.9359C5.81764 18.971 5.81764 19.0062 5.82051 19.0413C5.82051 18.9833 5.82051 18.9306 5.82051 18.8726V18.9359Z" fill="black"/>
<path d="M53.1148 24.611C53.1157 24.7637 53.0762 24.9139 53.0002 25.0464C52.9243 25.1788 52.8146 25.2888 52.6823 25.3652L48.3153 27.8863C48.1828 27.9621 48.0328 28.0021 47.8801 28.0021C47.7275 28.0021 47.5775 27.9621 47.445 27.8863L29.6233 17.5277L22.7932 21.4728C22.6604 21.5507 22.5093 21.5917 22.3554 21.5917C22.2015 21.5917 22.0504 21.5507 21.9177 21.4728L18.5738 19.516C18.4412 19.4397 18.3311 19.3298 18.2546 19.1974C18.178 19.065 18.1377 18.9148 18.1377 18.7618C18.1377 18.6089 18.178 18.4586 18.2546 18.3262C18.3311 18.1938 18.4412 18.0839 18.5738 18.0076L37.4714 7.10575C37.6047 7.02942 37.7556 6.98926 37.9092 6.98926C38.0627 6.98926 38.2137 7.02942 38.3469 7.10575L41.6961 9.05194C41.8273 9.12931 41.9361 9.23957 42.0116 9.37185C42.0872 9.50412 42.127 9.65382 42.127 9.80616C42.127 9.9585 42.0872 10.1082 42.0116 10.2405C41.9361 10.3727 41.8273 10.483 41.6961 10.5604L35.7309 14.0045L52.6823 23.8567C52.8149 23.9327 52.9249 24.0426 53.0009 24.1752C53.077 24.3077 53.1163 24.4582 53.1148 24.611V24.611Z" fill="#6A61C9"/>
<path d="M5.83662 18.8884C5.83662 18.9464 5.83662 18.9992 5.83662 19.0572C5.83376 19.0221 5.83376 18.9868 5.83662 18.9517V18.8884Z" fill="white"/>
<path d="M69.5336 19.7271C69.5336 19.7271 69.5336 19.7534 69.5336 19.764C69.5336 19.7745 69.5283 19.7376 69.5336 19.7271Z" fill="white"/>
<path d="M69.5337 19.7271C69.5337 19.6163 69.5337 19.5055 69.5601 19.3948C69.5591 19.506 69.5503 19.6171 69.5337 19.7271V19.7271Z" fill="white"/>
<path d="M71.7644 45.1804L43.3679 61.5728L43.2465 61.6624C40.1717 63.3713 35.2613 63.3502 32.2128 61.5886L3.78992 45.1804C2.26566 44.3049 1.55364 43.1498 1.75934 42.0211C1.75934 42.0211 1.75934 41.9895 1.75934 41.9737L6.0473 21.9843C6.14751 22.0898 6.25299 22.19 6.36375 22.2902C6.47451 22.3904 6.55363 22.459 6.65384 22.5381L6.76987 22.6277C6.87535 22.7069 6.98084 22.786 7.09687 22.8598C7.21291 22.9336 7.37113 23.0391 7.51881 23.1235L32.1443 37.3323C33.1939 37.9175 34.3383 38.3139 35.5251 38.5032C35.7677 38.5454 36.0156 38.5823 36.2687 38.614C36.773 38.6713 37.2802 38.6995 37.7877 38.6984C38.0356 38.6984 38.2835 38.6984 38.5314 38.6984C38.774 38.6984 39.0166 38.6773 39.2592 38.6351L39.6601 38.5823C39.6933 38.5874 39.7271 38.5874 39.7603 38.5823L40.0556 38.5032L40.2033 38.4768C40.3826 38.4452 40.5567 38.4083 40.7307 38.3661H40.7835L41.3109 38.2184L41.4638 38.1709H41.506C41.7012 38.1129 41.8911 38.0496 42.0757 37.9758C42.2603 37.9019 42.5082 37.8017 42.7191 37.7068C42.9301 37.6119 43.1305 37.5064 43.3257 37.3956C43.3777 37.3727 43.4272 37.3444 43.4733 37.3112L67.814 23.1446C68.3659 22.8336 68.8674 22.4406 69.3013 21.979V22.0107L73.7739 42.0528C74.027 43.1551 73.2834 44.3049 71.7644 45.1804Z" fill="#F7F7FB"/>
<path d="M68.6842 19.1521C68.7844 20.0276 68.1568 20.9137 66.9543 21.6152L42.5451 35.824L66.9965 21.6257C68.0935 20.9875 68.7 20.1858 68.7 19.3736C68.7006 19.2995 68.6953 19.2254 68.6842 19.1521V19.1521ZM5.82051 18.9359C5.81764 18.971 5.81764 19.0062 5.82051 19.0413C5.82051 18.9833 5.82051 18.9306 5.82051 18.8726V18.9359Z" fill="black"/>
<path d="M75.5039 41.6679L70.409 18.8304C70.3136 18.28 70.0974 17.7577 69.7761 17.3008C69.2633 16.5982 68.6026 16.0166 67.8405 15.5973L43.2203 1.37262C40.0557 -0.457541 35.0874 -0.457541 31.9334 1.37262L7.49255 15.5867C6.90806 15.8811 6.38879 16.2902 5.96564 16.7894C5.54249 17.2887 5.22412 17.868 5.02948 18.4928C5.01826 18.5237 5.00944 18.5555 5.00311 18.5878L0.0664158 41.5993V41.6573V41.7311C-0.286959 43.593 0.783713 45.4231 2.94615 46.6889L31.3691 63.1024C33.3521 64.1733 35.5765 64.7181 37.83 64.6847C40.0769 64.7189 42.2947 64.174 44.2699 63.1024C44.3163 63.0768 44.3589 63.0448 44.3964 63.0074L72.6664 46.6889C74.8236 45.4284 75.9206 43.5508 75.5039 41.6679ZM6.67504 19.1521C6.68046 19.0898 6.69105 19.0281 6.70669 18.9675C6.84173 18.5588 7.05872 18.182 7.34438 17.8601C7.63005 17.5381 7.97838 17.2779 8.36808 17.0951L32.8142 2.88106C34.277 2.11451 35.9098 1.7299 37.561 1.76292C39.2233 1.72639 40.8676 2.11296 42.3395 2.88633L66.9544 17.0899C67.7216 17.4607 68.3193 18.1093 68.6263 18.9042V18.9675C68.6415 19.0264 68.6521 19.0863 68.658 19.1468C68.6632 19.2171 68.6632 19.2876 68.658 19.3578C68.658 20.17 68.0514 20.9717 66.9544 21.6099L42.5452 35.824C39.9661 37.3166 35.6148 37.3113 33.0515 35.824L8.41027 21.6257C8.27309 21.55 8.14096 21.4654 8.0147 21.3726C7.78303 21.2188 7.56745 21.0421 7.37124 20.8451C7.3246 20.8002 7.28057 20.7527 7.23939 20.7027C6.89296 20.3365 6.69226 19.8563 6.67504 19.3525C6.6645 19.2734 6.66977 19.2101 6.67504 19.1521ZM5.82062 18.9517V18.9042C5.82062 18.9622 5.82062 19.015 5.82062 19.073C5.81683 19.0326 5.81683 18.992 5.82062 18.9517ZM71.7487 45.1805L43.368 61.5728L43.2467 61.6625C40.1718 63.3714 35.2614 63.3503 32.2129 61.5887L3.79003 45.1805C2.26578 44.305 1.55375 43.1499 1.75945 42.0212C1.75945 42.0212 1.75945 41.9896 1.75945 41.9738L6.04741 21.9844C6.14762 22.0899 6.2531 22.1901 6.36386 22.2903C6.47462 22.3905 6.55374 22.4591 6.65395 22.5382L6.76998 22.6278C6.87547 22.7069 6.98095 22.7861 7.09698 22.8599C7.21302 22.9337 7.37124 23.0392 7.51892 23.1236L32.1444 37.3324C33.1941 37.9176 34.3384 38.314 35.5252 38.5033C35.7678 38.5455 36.0157 38.5824 36.2688 38.6141C36.7731 38.6714 37.2803 38.6996 37.7878 38.6985C38.0357 38.6985 38.2836 38.6985 38.5315 38.6985C38.7741 38.6985 39.0167 38.6774 39.2593 38.6352L39.6602 38.5824C39.6934 38.5875 39.7272 38.5875 39.7604 38.5824L40.0557 38.5033L40.2034 38.4769C40.3827 38.4453 40.5568 38.4084 40.7308 38.3662H40.7836L41.311 38.2185L41.464 38.171H41.5062C41.7013 38.113 41.8912 38.0497 42.0758 37.9759C42.2604 37.902 42.5083 37.8018 42.7192 37.7069C42.9302 37.612 43.1306 37.5065 43.3258 37.3957C43.3778 37.3728 43.4273 37.3445 43.4734 37.3113L67.8141 23.1447C68.366 22.8337 68.8675 22.4406 69.3014 21.9791V22.0107L73.774 42.0529C74.0271 43.1552 73.2835 44.305 71.7645 45.1805H71.7487Z" fill="#6A61C9"/>
</svg>
